<?xml version='1.0' encoding='utf-8'?>
<svg xmlns="http://www.w3.org/2000/svg" id="svg7259" version="1.1" viewBox="0 0 295.1601 295.1601" height="295.1601mm" width="295.1601mm"> <defs id="defs7253"/> <metadata id="metadata7256"> </metadata> <g transform="translate(202.00862,-1.2532802)" id="layer1"> <circle r="143.10793" cy="148.83333" cx="-54.42857" id="path6564" style="fill:#000000;stroke:#000000;stroke-width:8.94424534;stroke-miterlimit:4;stroke-dasharray:none"/> <g transform="matrix(0.26458333,0,0,0.26458333,-96.765274,-329.96162)" style="fill:#ffffff" id="g6562"> <path d="m 160,2016 c 81.72345,0 148.21103,-70.8467 148.21103,-157.9309 v -304.6184 c 0,-87.0843 -66.48829,-157.931 -148.21103,-157.931 -81.72274,0 -148.21103,70.8467 -148.21103,157.931 v 304.6184 C 11.78897,1945.1533 78.27726,2016 160,2016 Z M 46.1825,1553.4507 c 0,-68.1135 51.05635,-123.5304 113.8175,-123.5304 62.75692,0 113.81043,55.4141 113.81043,123.5304 v 304.6184 c 0,68.1134 -51.05633,123.5303 -113.81043,123.5303 -62.75762,0 -113.8175,-55.4141 -113.8175,-123.5303 z" id="path1212" style="fill:#ffffff;stroke-width:30;stroke-miterlimit:4;stroke-dasharray:none"/> <path d="m 348.28273,1701.6546 c -7.7315,0 -14,6.2672 -14,13.9994 v 196.6766 c 0,33.6458 -17.6807,65.6334 -49.7839,90.0679 -33.24169,25.3021 -77.456,39.2365 -124.48966,39.2365 -47.03366,0 -91.24586,-13.9344 -124.48965,-39.2365 -32.10463,-24.4366 -49.78528,-56.4235 -49.78528,-90.0679 V 1715.654 c 0,-7.7322 -6.26716,-13.9994 -13.99936,-13.9994 -7.73219,0 -13.99935,6.2672 -13.99935,13.9994 v 196.6766 c 0,83.0777 83.24703,151.3146 188.2757,156.9222 v 126.4647 H 66.41798 v 28.0001 h 187.18945 v -28.0001 h -79.59326 v -126.4647 c 105.02866,-5.6118 188.27566,-73.8445 188.27566,-156.9222 V 1715.654 c 0,-7.7322 -6.2678,-13.9994 -13.9993,-13.9994 z" id="path1214" style="fill:#ffffff;stroke-width:30;stroke-miterlimit:4;stroke-dasharray:none"/> </g> </g> </svg>